<?xml version="1.0" encoding="UTF-8" standalone="yes"?>
<svg version="1.2" width="302.000000pt" height="302.000000pt" viewBox="0 0 302.000000 302.000000" preserveAspectRatio="xMidYMid meet" baseProfile="tiny-ps" xmlns="http://www.w3.org/2000/svg">
  <title>bimi-svg-tiny-12-ps</title>
  <g transform="translate(0.000000,302.000000) scale(0.100000,-0.100000)" fill="#000000" stroke="none">
    <path d="M0 1510 l0 -1510 1510 0 1510 0 0 1510 0 1510 -1510 0 -1510 0 0&#xA;-1510z m545 539 c81 -100 101 -119 121 -117 22 3 29 -6 60 -77 39 -89 184&#xA;-275 219 -282 11 -2 41 -5 67 -6 36 -2 54 -9 76 -30 35 -34 42 -34 80 3 18 17&#xA;41 30 52 30 10 0 35 -13 53 -30 19 -16 39 -30 44 -30 5 0 25 14 43 30 42 38&#xA;61 38 103 0 42 -36 51 -37 80 -6 38 40 69 42 110 7 42 -37 51 -38 80 -7 38 41&#xA;69 42 110 6 41 -36 67 -34 85 5 10 22 28 30 54 26 4 0 51 54 105 120 87 109&#xA;95 123 84 141 -11 17 -10 22 6 33 95 68 134 105 208 198 74 93 105 123 105&#xA;102 0 -3 -38 -53 -85 -111 -54 -68 -100 -137 -125 -192 -31 -66 -43 -83 -52&#xA;-74 -7 7 -15 12 -19 12 -4 0 -49 -53 -101 -118 -123 -153 -123 -152 -9 -295&#xA;52 -67 104 -121 142 -147 68 -48 75 -56 59 -75 -10 -12 7 -39 89 -142 56 -70&#xA;101 -131 101 -135 0 -21 -23 2 -114 117 -84 105 -103 125 -124 123 -22 -3 -28&#xA;5 -55 67 -18 44 -61 109 -113 175 -89 112 -122 134 -189 123 -23 -3 -36 1 -54&#xA;21 -31 33 -63 33 -95 1 -33 -33 -61 -32 -102 5 -37 32 -52 31 -90 -6 -30 -31&#xA;-68 -31 -96 1 -12 14 -32 25 -46 25 -14 0 -35 -11 -48 -25 -13 -14 -34 -25&#xA;-49 -25 -15 0 -36 11 -49 25 -13 14 -34 25 -46 25 -12 0 -33 -11 -46 -25 -29&#xA;-32 -65 -32 -95 0 -32 33 -72 33 -87 0 -8 -16 -23 -28 -42 -31 -43 -9 -231&#xA;-242 -206 -256 9 -5 16 -12 16 -16 0 -4 -30 -29 -67 -56 -47 -33 -96 -83 -158&#xA;-162 -49 -62 -93 -113 -97 -113 -20 -2 -1 28 81 131 59 73 100 135 120 182 26&#xA;63 33 71 55 69 21 -1 41 18 118 115 122 152 122 152 8 292 -49 60 -110 122&#xA;-151 153 -62 46 -67 53 -54 67 13 15 5 29 -85 141 -54 68 -99 130 -100 137 0&#xA;22 16 6 115 -119z"/>
  </g>
</svg>