<?xml version="1.0" standalone="no"?>
<!DOCTYPE svg PUBLIC "-//W3C//DTD SVG 20010904//EN"
 "http://www.w3.org/TR/2001/REC-SVG-20010904/DTD/svg10.dtd">
<svg version="1.0" xmlns="http://www.w3.org/2000/svg"
 width="400.000000pt" height="400.000000pt" viewBox="0 0 400.000000 400.000000"
 preserveAspectRatio="xMidYMid meet">
<metadata>
Created by potrace 1.16, written by Peter Selinger 2001-2019
</metadata>
<g transform="translate(0.000000,400.000000) scale(0.100000,-0.100000)"
fill="#000000" stroke="none">
<path d="M0 2000 l0 -2000 2000 0 2000 0 0 2000 0 2000 -2000 0 -2000 0 0
-2000z m1253 1046 c159 -57 217 -252 114 -388 -89 -119 -278 -130 -379 -22
-89 96 -89 252 0 348 62 66 177 93 265 62z m1690 -19 c170 -100 163 -348 -12
-439 -127 -67 -290 -6 -346 129 -36 85 -8 209 62 275 77 73 205 88 296 35z
m-1668 -816 c114 -50 174 -193 130 -308 -67 -176 -287 -223 -418 -88 -107 110
-82 305 51 382 79 46 153 51 237 14z m836 -6 c85 -43 129 -117 129 -217 0
-101 -47 -181 -133 -224 -138 -71 -308 0 -351 147 -20 66 -20 82 0 148 44 151
210 219 355 146z m-16 -814 c91 -41 144 -126 145 -229 0 -73 -15 -114 -60
-166 -44 -50 -102 -78 -175 -83 -54 -5 -67 -1 -125 29 -53 27 -71 43 -96 86
-54 89 -54 174 0 266 44 76 116 115 211 115 37 0 75 -6 100 -18z m833 -7 c65
-32 108 -84 128 -153 50 -169 -88 -336 -261 -318 -98 10 -188 80 -213 166 -31
103 -5 201 73 269 77 68 182 82 273 36z"/>
<path d="M1090 2958 c-155 -79 -94 -318 80 -318 90 0 170 80 170 170 0 57 -39
120 -90 147 -55 29 -104 29 -160 1z"/>
<path d="M2738 2960 c-60 -32 -83 -74 -83 -150 0 -77 24 -119 85 -150 75 -38
149 -22 208 44 55 63 55 149 -1 213 -56 64 -137 80 -209 43z"/>
<path d="M1116 2146 c-162 -60 -150 -288 17 -326 110 -24 212 64 204 177 -8
111 -118 186 -221 149z"/>
<path d="M1951 2150 c-76 -18 -125 -83 -125 -165 0 -63 24 -108 74 -141 47
-31 119 -35 167 -11 37 20 81 70 89 103 11 42 -2 120 -24 151 -36 51 -116 78
-181 63z"/>
<path d="M1914 1312 c-96 -61 -118 -178 -49 -260 71 -85 201 -79 266 11 24 33
29 50 29 97 0 63 -22 106 -72 143 -40 30 -133 34 -174 9z"/>
<path d="M2742 1313 c-80 -39 -117 -155 -74 -233 53 -97 180 -118 262 -43 61
55 75 126 39 200 -39 81 -145 117 -227 76z"/>
</g>
</svg>
